<svg width="535" height="534" xmlns="http://www.w3.org/2000/svg" xmlns:xlink="http://www.w3.org/1999/xlink" overflow="hidden"><defs><clipPath id="clip0"><path d="M427 92 962 92 962 626 427 626Z" fill-rule="evenodd" clip-rule="evenodd"/></clipPath><clipPath id="clip1"><path d="M474 259 657 259 657 441 474 441Z" fill-rule="evenodd" clip-rule="evenodd"/></clipPath><clipPath id="clip2"><path d="M474 259 657 259 657 441 474 441Z" fill-rule="evenodd" clip-rule="evenodd"/></clipPath><clipPath id="clip3"><path d="M474 259 657 259 657 441 474 441Z" fill-rule="evenodd" clip-rule="evenodd"/></clipPath></defs><g clip-path="url(#clip0)" transform="translate(-427 -92)"><path d="M765 536 950 536 950 573 765 573Z" fill="#3762AF" fill-rule="evenodd"/><path d="M619 145 885 354.544 885 380.193 619 568 619 503.224 818.191 367.586 818.191 364.978 619 210.211Z" fill="#3762AF" fill-rule="evenodd"/><g clip-path="url(#clip1)"><g clip-path="url(#clip2)"><g clip-path="url(#clip3)"><path d="M0 67.2902 17.027 44.7891 80.7625 18.8754 80.7625 0.177734 136.642 41.0566 22.5012 63.2379 22.5012 125.623 0 119.118 0 67.2902ZM182 33.5563 182 144.676 138.384 181.822 67.859 158.646 67.859 181.822 22.5012 125.587 136.678 139.202 136.678 41.0566 182 33.5563Z" fill="#0078D4" transform="matrix(1.00549 0 -0 1 474 259)"/></g></g></g></g></svg>