<svg width="1282" height="723" xmlns="http://www.w3.org/2000/svg" xmlns:xlink="http://www.w3.org/1999/xlink" overflow="hidden"><defs><clipPath id="clip0"><path d="M-1-1 1281-1 1281 722-1 722Z" fill-rule="evenodd" clip-rule="evenodd"/></clipPath><linearGradient x1="640" y1="428" x2="640" y2="722" gradientUnits="userSpaceOnUse" spreadMethod="reflect" id="fill1"><stop offset="0" stop-color="#3762AF"/><stop offset="0.27" stop-color="#3762AF"/><stop offset="1" stop-color="#3762AF" stop-opacity="0"/></linearGradient></defs><g clip-path="url(#clip0)" transform="translate(1 1)"><path d="M619.903 65.4243C613.263 65.4243 595.714 90.5612 582.672 113.09 592.869 110.481 604.726 109.058 617.531 109.058 630.811 109.058 642.668 110.481 653.102 113.327 639.585 90.3241 626.78 65.1872 619.903 65.4243Z" fill="#0070C4" fill-rule="evenodd"/><path d="M555.4 265.097 544.255 270.077C539.749 272.211 536.904 276.48 536.666 281.46L536.666 356.871C536.666 369.202 553.029 374.182 559.669 363.748L584.094 325.094C574.846 310.628 563.226 290.471 555.4 265.097Z" fill="#0070C4" fill-rule="evenodd"/><path d="M680.137 264.149C672.548 288.337 661.877 308.02 651.917 322.722L678.24 363.748C684.879 374.182 701.242 369.676 701.242 356.871L701.242 281.46C701.242 276.717 698.396 271.974 693.654 270.077L680.137 264.149Z" fill="#0070C4" fill-rule="evenodd"/><path d="M574.135 130.164C565.835 149.846 559.669 175.458 559.669 206.286 559.669 262.726 585.517 305.174 602.592 326.991L631.997 326.991C649.071 305.174 675.394 262.726 675.394 206.286 675.394 175.458 669.465 150.084 661.165 130.401 650.257 125.658 634.843 122.575 617.057 122.338 600.22 122.575 585.043 125.421 574.135 130.164ZM637.451 169.292C637.451 180.201 628.44 189.212 617.294 189.449 606.386 189.449 597.374 180.438 597.137 169.292 597.137 158.384 606.149 149.372 617.294 149.135 628.44 149.372 637.451 158.384 637.451 169.292Z" fill="#0070C4" fill-rule="evenodd"/><path d="M626.721 340.508C629.151 340.745 630.693 342.998 630.811 350.942 630.811 358.768 629.329 370.091 626.898 379.458L625.522 384 609.197 384 607.779 379.369C605.319 370.032 603.777 358.768 603.777 350.942 603.777 335.291 609.706 342.168 617.294 342.168 620.97 342.049 624.29 340.271 626.721 340.508Z" fill="#0070C4" fill-rule="evenodd"/><path d="M612 385.833C612 384.821 612.821 384 613.833 384L621.167 384C622.179 384 623 384.821 623 385.833L623 567.167C623 568.179 622.179 569 621.167 569L613.833 569C612.821 569 612 568.179 612 567.167Z" fill="#2FA6FF" fill-rule="evenodd"/><path d="M875.903 428C943.595 428 1002.48 462.365 1032.67 512.986L1038.83 524.635 1051.95 525.246C1141.85 533.662 1212 603.651 1212 688.745 1212 700.091 1210.75 711.169 1208.38 721.867L1208.34 722 771.749 722 768.867 720.037 767.323 722 510.873 722 505.309 719.592 503.19 718.397 499.212 722 86.7339 722 82.0102 712.961C72.9887 693.298 68 671.681 68 648.989 68 558.222 147.819 484.641 246.281 484.641 252.435 484.641 258.516 484.928 264.509 485.49L270.336 486.309 274.131 482.149C303.982 452.407 345.222 434.012 390.773 434.012 459.1 434.012 517.725 475.402 542.766 534.389L543.255 535.956 544.914 535.721C548.47 535.386 552.078 535.214 555.729 535.214 584.939 535.214 611.384 546.195 630.526 563.95L639.977 574.575 640.817 574.2C650.309 570.476 660.508 568.001 671.176 566.996L679.059 566.627 679.872 559.145C686.037 531.203 705.008 507.588 730.849 493.806L733.912 492.481 738.333 487.095C771.032 451.004 820.518 428 875.903 428Z" fill="url(#fill1)" fill-rule="evenodd"/></g></svg>